<?xml version="1.0" standalone="no"?>
<!DOCTYPE svg PUBLIC "-//W3C//DTD SVG 20010904//EN"
 "http://www.w3.org/TR/2001/REC-SVG-20010904/DTD/svg10.dtd">
<svg version="1.0" xmlns="http://www.w3.org/2000/svg"
 width="512.000000pt" height="512.000000pt" viewBox="0 0 512.000000 512.000000"
 preserveAspectRatio="xMidYMid meet">

<g transform="translate(0.000000,512.000000) scale(0.100000,-0.100000)"
fill="#007D8B" stroke="none">
<path d="M3941 4900 c-203 -28 -383 -125 -525 -282 l-67 -75 -113 39 c-280 95
-612 130 -914 97 -475 -52 -922 -268 -1267 -614 -295 -295 -493 -655 -579
-1055 -119 -553 -10 -1141 297 -1608 405 -617 1059 -972 1789 -972 567 0 1105
222 1492 615 291 296 474 613 572 992 101 392 85 821 -45 1202 l-40 115 22 14
c51 34 176 174 219 248 95 159 139 356 118 526 -52 427 -384 739 -810 762 -47
3 -114 1 -149 -4z m198 -397 c58 -43 71 -77 71 -184 l0 -99 93 0 c149 -1 216
-46 225 -154 3 -41 -1 -57 -20 -85 -44 -65 -68 -75 -186 -81 l-107 -5 -5 -112
c-5 -119 -14 -143 -71 -186 -64 -47 -169 -24 -219 49 -22 33 -25 50 -29 146
l-3 108 -95 0 c-111 0 -152 15 -189 69 -32 48 -33 124 -1 171 43 64 67 74 181
78 l104 4 4 97 c3 78 8 103 26 133 45 73 156 99 221 51z m-1359 -143 c98 -12
306 -62 386 -92 l54 -21 -7 -51 c-13 -85 -7 -265 11 -340 72 -301 318 -549
626 -632 70 -19 256 -25 346 -11 l52 7 16 -39 c23 -58 62 -203 81 -301 23
-117 31 -394 15 -528 -40 -343 -189 -693 -401 -941 -30 -35 -66 -77 -80 -94
l-27 -31 -52 57 c-123 135 -353 270 -586 346 -658 215 -1471 74 -1868 -323
l-79 -79 -34 39 c-248 284 -384 551 -454 894 -21 101 -24 142 -24 340 0 195 3
240 23 338 81 400 288 762 582 1020 274 240 653 409 1000 445 79 8 341 6 420
-3z"/>
<path d="M2399 3626 c-294 -62 -539 -295 -614 -585 -50 -196 -17 -436 86 -606
50 -84 163 -202 247 -256 138 -90 281 -132 452 -132 134 0 215 20 350 86 91
44 117 63 196 142 55 54 107 118 132 160 104 178 137 409 87 606 -38 150 -148
322 -268 420 -72 58 -215 132 -302 155 -82 22 -282 27 -366 10z"/>
</g>
</svg>
